<?xml version="1.0" encoding="UTF-8" ?>
<!DOCTYPE svg PUBLIC "-//W3C//DTD SVG 1.1//EN" "http://www.w3.org/Graphics/SVG/1.1/DTD/svg11.dtd">
<svg width="281pt" height="211pt" viewBox="0 0 281 211" version="1.1" xmlns="http://www.w3.org/2000/svg">
<g id="#ffffffff">
<path fill="#ffffff" opacity="1.00" d=" M 95.00 22.17 C 122.85 13.26 153.31 12.80 181.44 20.79 C 220.56 32.22 254.97 58.66 276.58 93.16 C 280.50 99.12 281.61 107.05 278.27 113.52 C 275.11 119.76 270.96 125.47 266.65 130.96 C 240.37 164.81 200.77 188.63 158.07 194.01 C 154.29 193.72 150.76 195.41 146.98 195.06 C 141.33 194.98 135.66 195.23 130.02 194.91 C 126.94 193.84 123.65 194.13 120.45 193.94 C 118.32 192.63 115.71 193.37 113.44 192.51 C 68.38 183.78 27.93 154.92 3.93 115.95 C -0.28 109.28 -0.26 100.46 4.02 93.82 C 24.70 60.28 57.55 34.43 95.00 22.17 M 139.71 37.30 C 136.85 38.93 133.39 37.34 130.38 38.50 C 110.63 42.55 94.43 60.52 93.12 80.74 C 92.78 83.88 92.51 87.61 94.98 90.01 C 97.66 93.33 103.22 93.31 105.97 90.09 C 108.57 87.43 108.05 83.44 108.55 80.06 C 110.41 65.81 123.16 53.71 137.55 52.84 C 140.28 52.53 143.41 52.66 145.50 50.56 C 148.35 48.08 149.00 43.44 146.48 40.50 C 145.02 38.21 142.21 37.66 139.71 37.30 M 73.54 53.30 C 51.81 65.72 33.85 84.03 20.37 105.00 C 38.44 132.71 64.62 155.70 95.85 167.25 C 131.09 180.11 171.91 176.98 204.52 158.29 C 227.31 145.57 246.38 126.78 260.63 105.00 C 247.13 84.04 229.19 65.71 207.46 53.30 C 205.66 52.31 203.91 51.07 201.80 50.83 C 202.59 54.41 205.16 57.25 206.01 60.81 C 210.12 71.72 211.26 83.68 209.66 95.20 C 206.08 122.85 183.82 146.73 156.84 153.14 C 154.14 154.06 151.03 153.40 148.56 154.94 C 143.19 155.12 137.81 155.13 132.44 154.93 C 130.72 153.65 128.50 154.10 126.54 153.61 C 107.60 150.05 90.99 137.53 80.78 121.39 C 71.01 105.95 68.39 86.52 72.53 68.83 C 73.85 62.51 76.75 56.72 79.23 50.84 C 77.11 51.06 75.35 52.30 73.54 53.30 Z" />
</g>
</svg>
