<?xml version="1.0" encoding="UTF-8" ?>
<!DOCTYPE svg PUBLIC "-//W3C//DTD SVG 1.1//EN" "http://www.w3.org/Graphics/SVG/1.1/DTD/svg11.dtd">
<svg width="1000pt" height="220pt" viewBox="0 0 1000 220" version="1.1" xmlns="http://www.w3.org/2000/svg">
<g id="#ffffffff">
<path fill="#ffffff" opacity="1.00" d=" M 386.42 46.39 C 393.05 26.77 408.07 3.21 431.93 6.27 C 445.95 7.36 447.78 23.94 446.15 34.95 C 440.32 71.78 421.27 104.72 404.15 137.30 C 417.91 129.35 426.92 107.09 445.36 102.43 C 450.94 100.74 456.73 105.20 456.87 110.94 C 458.73 133.09 439.46 153.35 446.64 175.34 C 454.98 179.27 463.84 170.26 470.10 165.11 C 471.58 131.96 475.10 97.28 491.84 67.93 C 496.82 56.82 515.21 54.48 520.52 66.69 C 501.46 94.73 501.06 130.32 499.17 162.97 C 499.43 170.04 497.67 177.68 500.64 184.35 C 517.00 190.43 535.85 191.88 552.29 185.24 C 568.96 179.07 579.26 158.02 571.36 141.63 C 561.18 126.24 539.27 130.76 526.04 119.95 C 520.73 115.64 519.91 102.47 529.02 102.72 C 542.75 102.66 557.16 105.02 570.16 99.12 C 582.01 94.79 592.90 82.58 589.69 69.26 C 585.36 58.62 572.95 55.12 562.85 52.33 C 535.82 46.80 506.37 46.76 480.64 57.64 C 465.58 63.09 464.18 82.30 450.85 89.89 C 448.38 91.40 445.52 89.49 445.10 86.87 C 440.71 65.22 453.60 42.23 473.94 33.91 C 511.58 18.04 556.21 23.88 592.04 41.94 C 606.57 49.21 621.53 64.49 615.19 82.12 C 608.93 105.10 583.43 114.78 561.82 116.22 C 573.51 117.52 585.04 123.51 591.12 133.85 C 605.92 159.19 590.67 193.66 564.64 204.60 C 536.08 217.08 503.82 208.69 475.59 199.44 C 471.12 198.74 468.85 194.72 469.35 190.43 C 457.96 197.65 441.14 208.21 428.91 197.12 C 411.48 178.90 421.38 152.09 431.56 132.82 C 409.68 148.63 398.28 176.18 385.57 199.57 C 376.88 207.60 368.94 194.88 370.04 186.54 C 351.63 196.35 331.01 203.39 309.94 202.87 C 298.90 202.84 285.98 197.64 283.57 185.66 C 270.44 194.74 254.91 203.74 238.35 201.56 C 229.37 200.50 224.53 191.43 224.74 183.09 C 212.71 194.35 190.10 189.37 190.12 170.90 C 181.51 186.51 169.97 201.97 152.97 208.94 C 140.35 214.39 123.69 212.45 115.41 200.56 C 102.63 182.68 102.32 159.32 102.80 138.20 C 97.89 160.06 92.91 183.96 76.16 200.18 C 60.77 214.91 29.49 217.90 19.90 195.06 C 0.32 151.43 10.01 100.66 25.14 57.12 C 28.43 46.43 35.73 33.34 48.97 35.43 C 56.89 34.03 59.81 42.67 57.79 48.94 C 51.33 77.74 40.71 105.58 36.61 134.92 C 34.99 150.79 32.95 169.88 44.23 182.80 C 54.61 190.91 66.36 179.38 71.67 170.64 C 90.58 138.79 98.56 101.94 106.20 66.10 C 107.87 56.92 110.39 44.33 121.35 42.43 C 128.10 41.07 139.99 41.64 139.78 51.03 C 134.74 89.83 126.52 128.75 129.12 168.09 C 130.12 176.12 130.65 185.98 137.76 191.17 C 147.17 194.98 155.60 186.53 160.16 179.16 C 182.14 138.29 184.57 90.35 189.24 45.05 C 189.29 29.82 218.40 26.20 218.17 43.00 C 218.07 80.66 207.46 117.18 201.21 154.01 C 199.89 167.80 219.18 172.72 226.81 162.85 C 230.57 145.67 234.55 128.42 239.63 111.61 C 244.64 104.99 259.85 99.61 264.50 108.41 C 262.34 131.74 249.25 153.77 251.42 177.67 C 253.62 186.99 264.77 179.85 269.62 176.54 C 270.25 168.93 277.36 164.98 282.48 160.44 C 300.47 146.48 311.16 125.88 326.27 109.25 C 332.50 102.89 345.52 101.29 351.04 109.11 C 354.79 119.69 342.35 125.72 338.77 133.95 C 340.21 147.96 346.52 161.31 345.27 175.73 C 353.14 170.81 361.94 167.66 370.05 163.19 C 371.21 123.90 373.48 83.84 386.42 46.39 M 393.12 127.37 C 404.01 101.19 417.00 75.68 424.26 48.16 C 425.78 40.73 428.58 32.43 425.13 25.16 C 399.80 51.75 396.18 92.36 393.12 127.37 M 293.18 175.49 C 299.41 181.95 309.06 190.07 317.96 182.93 C 326.40 174.03 321.89 160.27 319.08 149.85 C 310.40 158.35 301.95 167.08 293.18 175.49 Z" />
<path fill="#ffffff" opacity="1.00" d=" M 951.93 18.99 C 958.56 10.74 969.67 2.84 980.61 7.37 C 990.52 12.95 991.75 25.77 991.93 36.00 C 991.29 70.50 975.99 102.21 961.95 132.98 C 956.32 144.88 951.66 158.51 955.26 171.69 C 956.05 175.46 959.93 178.09 963.70 176.63 C 974.62 173.27 983.31 165.33 992.12 158.39 C 993.19 166.26 994.18 174.15 995.21 182.03 C 984.57 189.98 973.38 197.98 960.39 201.48 C 948.55 203.84 937.80 194.41 933.67 183.96 C 922.86 194.32 908.39 204.40 892.63 201.42 C 879.07 198.17 872.94 183.27 872.47 170.55 C 861.47 175.19 846.48 172.47 841.30 160.70 C 836.61 153.80 838.08 143.03 834.05 137.22 C 826.20 156.91 820.45 177.48 811.79 196.83 C 806.90 207.07 791.85 200.62 791.67 190.58 C 784.04 197.17 774.51 203.79 763.90 202.29 C 755.49 201.06 750.94 192.86 747.98 185.75 C 736.88 198.00 716.86 208.60 701.58 197.35 C 685.37 184.83 689.69 161.05 697.27 144.81 C 688.79 137.15 679.54 130.16 669.67 124.38 C 680.31 146.51 676.43 175.24 658.25 192.25 C 647.10 203.03 627.75 205.98 615.37 195.66 C 586.65 169.01 600.48 108.37 642.34 104.42 C 666.33 100.99 688.56 115.48 703.21 133.29 C 713.23 118.31 730.11 101.08 749.57 105.38 C 753.46 115.42 765.55 108.56 771.09 114.96 C 775.70 135.93 760.68 157.61 767.66 178.25 C 777.90 180.61 785.82 169.63 792.07 162.81 C 794.86 145.12 797.11 127.10 803.09 110.11 C 804.68 103.13 814.42 102.35 819.34 105.61 C 821.48 114.61 819.58 124.19 820.56 133.41 C 826.61 125.00 829.73 113.96 838.74 107.72 C 844.59 102.58 856.71 102.07 859.32 110.86 C 861.03 122.96 851.87 136.38 859.47 147.55 C 865.28 151.88 876.79 149.39 879.14 142.08 C 887.79 124.79 905.04 111.46 924.54 109.57 C 925.92 77.97 932.46 44.72 951.93 18.99 M 961.48 38.40 C 951.65 65.88 949.91 95.65 949.52 124.62 C 961.46 95.89 974.93 65.79 973.11 34.01 C 971.43 25.13 962.34 33.12 961.48 38.40 M 640.34 124.43 C 626.02 133.78 621.77 153.85 624.31 169.89 C 625.09 178.95 637.11 186.89 644.36 179.37 C 654.73 167.28 657.99 149.67 654.69 134.30 C 653.63 127.82 647.27 121.20 640.34 124.43 M 716.76 170.96 C 715.44 178.75 724.36 186.62 730.73 179.77 C 744.19 164.38 742.98 142.28 748.34 123.54 C 727.52 127.34 717.04 151.73 716.76 170.96 M 897.16 171.06 C 897.13 180.39 910.29 183.55 915.78 176.79 C 931.33 163.50 924.38 142.54 925.00 124.86 C 908.23 133.44 896.95 152.28 897.16 171.06 Z" />
<path fill="#ffffff" opacity="1.00" d=" M 261.36 58.44 C 272.94 55.64 286.02 65.67 281.14 78.09 C 277.44 93.24 251.67 96.15 245.51 81.63 C 241.14 70.96 250.17 58.76 261.36 58.44 Z" />
</g>
</svg>
