<?xml version="1.0" encoding="UTF-8" ?>
<!DOCTYPE svg PUBLIC "-//W3C//DTD SVG 1.1//EN" "http://www.w3.org/Graphics/SVG/1.1/DTD/svg11.dtd">
<svg width="281pt" height="211pt" viewBox="0 0 281 211" version="1.1" xmlns="http://www.w3.org/2000/svg">
<g id="#ffffffff">
<path fill="#ffffff" opacity="1.00" d=" M 181.22 0.00 L 181.63 0.00 C 182.66 0.80 183.77 1.51 185.09 1.73 C 190.54 3.00 194.61 7.11 199.57 9.45 C 202.37 10.76 206.03 13.70 204.05 17.13 C 168.73 80.49 133.60 143.96 98.19 207.26 C 97.20 208.70 95.54 209.42 94.13 210.35 C 87.04 206.67 79.90 203.07 73.10 198.90 C 71.50 198.05 70.64 196.22 70.70 194.46 C 72.10 189.60 75.32 185.54 77.36 180.94 C 68.27 176.41 59.20 171.72 51.02 165.63 C 41.48 159.14 33.31 150.97 25.03 143.00 C 17.29 134.03 9.40 125.08 3.35 114.84 C -0.08 108.89 -0.17 101.17 3.29 95.22 C 8.92 85.57 16.36 77.17 23.53 68.66 C 39.46 51.81 58.23 37.33 79.49 27.84 C 103.62 17.00 130.70 13.24 156.94 16.11 C 160.92 16.66 164.90 17.34 168.92 17.64 C 171.20 13.07 173.75 8.62 176.24 4.16 C 177.34 2.10 179.10 0.25 181.59 0.02 C 181.50 0.02 181.31 0.01 181.22 0.00 M 139.76 37.28 C 136.90 38.88 133.46 37.39 130.44 38.47 C 110.50 42.51 94.27 60.70 93.01 81.08 C 92.52 84.57 92.80 88.74 95.95 90.96 C 98.91 93.60 103.35 92.63 106.14 90.25 C 108.30 87.27 108.26 83.52 108.58 80.02 C 110.49 65.61 123.51 53.49 138.07 52.82 C 140.40 52.45 143.08 52.76 144.95 51.04 C 148.20 48.71 149.28 43.68 146.54 40.54 C 145.11 38.20 142.24 37.71 139.76 37.28 M 75.87 51.97 C 53.10 64.39 34.29 83.26 20.34 104.99 C 29.95 119.55 41.41 132.99 55.07 143.90 C 64.83 151.95 75.83 158.37 87.26 163.74 C 91.43 156.42 95.27 148.92 99.61 141.70 C 96.63 138.86 93.10 136.66 90.41 133.51 C 76.71 119.46 69.31 99.43 70.89 79.84 C 71.41 72.03 73.39 64.38 76.42 57.18 C 77.40 55.06 78.68 53.05 79.27 50.77 C 78.07 50.98 76.93 51.38 75.87 51.97 Z" />
<path fill="#ffffff" opacity="1.00" d=" M 216.55 59.01 C 219.79 53.30 223.09 47.63 226.17 41.83 C 244.13 53.68 259.71 69.09 272.24 86.56 C 275.43 91.48 279.33 96.37 280.04 102.40 C 281.04 108.34 278.49 114.21 275.10 118.97 C 250.19 156.15 211.16 184.98 166.60 192.80 C 157.93 193.67 149.38 195.86 140.59 194.89 C 144.59 188.16 148.28 181.25 152.15 174.44 C 176.24 172.39 199.82 163.60 219.06 148.91 C 234.38 138.12 247.39 124.22 257.95 108.79 C 258.78 107.35 260.74 105.80 259.81 103.98 C 248.53 86.34 233.65 71.08 216.55 59.01 Z" />
<path fill="#ffffff" opacity="1.00" d=" M 165.72 150.15 C 180.24 124.14 194.70 98.09 209.28 72.12 C 211.15 84.05 210.48 96.48 206.40 107.89 C 202.31 119.43 195.19 129.89 185.92 137.89 C 180.00 143.19 172.88 146.82 165.72 150.15 Z" />
</g>
</svg>
