<?xml version="1.0" encoding="UTF-8" ?>
<!DOCTYPE svg PUBLIC "-//W3C//DTD SVG 1.1//EN" "http://www.w3.org/Graphics/SVG/1.1/DTD/svg11.dtd">
<svg width="183pt" height="182pt" viewBox="0 0 183 182" version="1.1" xmlns="http://www.w3.org/2000/svg">
<g id="#ffffffff">
<path fill="#ffffff" opacity="1.00" d=" M 76.94 106.89 C 96.31 87.57 115.65 68.21 135.02 48.90 C 140.49 54.15 145.87 59.52 151.12 64.99 C 124.50 91.47 98.08 118.15 71.35 144.51 C 58.17 131.26 44.94 118.06 31.69 104.89 C 36.63 99.25 42.31 94.31 47.40 88.81 C 48.54 89.56 49.58 90.46 50.52 91.45 C 57.35 98.42 64.39 105.19 71.17 112.20 C 73.39 110.78 75.06 108.70 76.94 106.89 Z" />
</g>
<g id="#a8dba8ff">
<path fill="#a8dba8" opacity="1.00" d=" M 86.53 0.00 L 99.37 0.00 C 103.67 1.03 108.11 1.32 112.41 2.38 C 133.52 7.27 152.75 19.92 165.46 37.50 C 175.82 51.44 181.51 68.44 183.00 85.66 L 183.00 96.56 C 181.22 117.73 172.62 138.44 157.73 153.74 C 143.38 168.86 123.66 178.82 102.93 181.20 C 101.07 181.43 99.23 181.76 97.38 182.00 L 84.60 182.00 C 82.40 181.50 80.18 181.04 77.93 180.78 C 47.41 176.48 20.22 155.12 8.16 126.86 C -0.87 105.93 -1.53 81.57 6.22 60.15 C 13.53 39.64 28.63 22.13 47.61 11.54 C 59.51 4.76 72.98 1.31 86.53 0.00 M 76.94 106.89 C 75.06 108.70 73.39 110.78 71.17 112.20 C 64.39 105.19 57.35 98.42 50.52 91.45 C 49.58 90.46 48.54 89.56 47.40 88.81 C 42.31 94.31 36.63 99.25 31.69 104.89 C 44.94 118.06 58.17 131.26 71.35 144.51 C 98.08 118.15 124.50 91.47 151.12 64.99 C 145.87 59.52 140.49 54.15 135.02 48.90 C 115.65 68.21 96.31 87.57 76.94 106.89 Z" />
</g>
</svg>
