<?xml version="1.0" encoding="UTF-8" ?>
<!DOCTYPE svg PUBLIC "-//W3C//DTD SVG 1.1//EN" "http://www.w3.org/Graphics/SVG/1.1/DTD/svg11.dtd">
<svg width="183pt" height="182pt" viewBox="0 0 183 182" version="1.1" xmlns="http://www.w3.org/2000/svg">
<g id="#ffffffff">
<path fill="#ffffff" opacity="1.00" d=" M 78.38 41.01 C 88.35 41.00 98.33 40.99 108.30 41.01 C 108.26 49.33 108.44 57.65 108.22 65.96 C 106.45 82.32 104.39 98.66 102.55 115.02 C 96.39 115.16 90.22 115.06 84.05 115.07 C 82.07 98.74 80.31 82.38 78.46 66.03 C 78.24 57.69 78.42 49.35 78.38 41.01 Z" />
<path fill="#ffffff" opacity="1.00" d=" M 79.38 123.01 C 88.68 122.99 97.99 122.99 107.30 123.01 C 107.32 131.67 107.32 140.33 107.30 148.99 C 97.99 149.01 88.68 149.01 79.37 148.99 C 79.37 140.33 79.36 131.67 79.38 123.01 Z" />
</g>
<g id="#f0d95bff">
<path fill="#f0d95b" opacity="1.00" d=" M 44.01 13.96 C 62.38 2.46 85.00 -2.08 106.38 1.44 C 128.34 4.92 148.86 16.90 162.70 34.29 C 174.72 48.89 181.17 67.38 183.00 86.05 L 183.00 96.30 C 182.52 101.10 181.51 105.82 180.55 110.54 C 176.05 131.25 163.93 150.21 147.04 163.01 C 129.05 176.88 105.67 183.60 83.06 181.26 C 67.09 179.73 51.55 173.87 38.58 164.41 C 19.00 150.23 5.23 128.06 2.01 104.02 C -0.32 89.41 1.47 74.28 6.41 60.38 C 13.22 41.25 26.75 24.63 44.01 13.96 M 78.38 41.01 C 78.42 49.35 78.24 57.69 78.46 66.03 C 80.31 82.38 82.07 98.74 84.05 115.07 C 90.22 115.06 96.39 115.16 102.55 115.02 C 104.39 98.66 106.45 82.32 108.22 65.96 C 108.44 57.65 108.26 49.33 108.30 41.01 C 98.33 40.99 88.35 41.00 78.38 41.01 M 79.38 123.01 C 79.36 131.67 79.37 140.33 79.37 148.99 C 88.68 149.01 97.99 149.01 107.30 148.99 C 107.32 140.33 107.32 131.67 107.30 123.01 C 97.99 122.99 88.68 122.99 79.38 123.01 Z" />
</g>
</svg>
