<?xml version="1.0" encoding="UTF-8" ?>
<!DOCTYPE svg PUBLIC "-//W3C//DTD SVG 1.1//EN" "http://www.w3.org/Graphics/SVG/1.1/DTD/svg11.dtd">
<svg width="1139pt" height="926pt" viewBox="0 0 1139 926" version="1.1" xmlns="http://www.w3.org/2000/svg">
<g id="#000000ff">
</g>
<g id="#f2f2caff">
<path fill="#f2f2ca" opacity="1.00" d=" M 778.91 0.00 L 798.43 0.00 C 801.24 0.64 804.14 0.53 807.01 0.74 C 809.88 1.97 813.12 0.92 816.11 1.73 C 818.99 2.57 822.09 2.05 824.91 3.16 C 830.31 3.63 835.68 4.67 840.90 6.14 C 885.86 15.99 927.61 40.06 958.93 73.78 C 963.74 73.43 968.33 71.80 973.10 71.14 C 979.75 69.49 986.38 67.61 993.10 66.18 C 1008.20 61.57 1023.33 56.85 1038.08 51.14 C 1061.82 41.62 1085.19 30.86 1106.96 17.37 C 1105.96 23.77 1102.90 29.61 1100.72 35.66 C 1082.93 78.47 1052.00 115.63 1013.24 141.03 C 1011.03 142.36 1009.08 144.33 1006.44 144.72 C 1006.42 145.15 1006.38 146.01 1006.36 146.44 C 1007.29 146.39 1009.14 146.28 1010.07 146.22 C 1012.17 144.94 1014.71 145.54 1017.05 145.21 C 1024.63 143.57 1032.45 142.53 1040.13 141.15 C 1044.73 139.94 1049.40 138.97 1054.09 138.13 C 1060.76 136.51 1067.38 134.60 1074.10 133.19 C 1090.12 128.19 1106.29 123.34 1121.86 116.94 C 1127.65 114.88 1133.10 111.90 1139.00 110.18 L 1139.00 110.47 C 1137.14 111.85 1136.01 113.87 1134.80 115.77 C 1110.48 151.03 1081.23 182.83 1048.44 210.35 C 1039.99 217.11 1031.72 224.23 1022.58 230.04 C 1022.65 250.04 1022.91 270.05 1022.46 290.05 C 1022.38 293.70 1021.42 297.27 1021.64 300.94 C 1021.91 306.40 1020.37 311.72 1020.57 317.17 C 1019.58 322.13 1019.86 327.22 1018.81 332.15 C 1018.29 334.40 1019.12 336.91 1017.76 338.93 C 1017.35 341.58 1018.25 344.53 1016.73 346.94 C 1016.85 350.82 1015.90 354.59 1015.39 358.41 C 1014.41 363.21 1014.19 368.16 1012.87 372.90 C 1012.12 378.27 1011.20 383.63 1009.87 388.89 C 1009.19 393.73 1007.97 398.48 1006.91 403.25 C 1005.00 411.48 1003.24 419.76 1000.85 427.87 C 1000.55 429.19 1000.34 430.55 999.87 431.83 C 976.74 517.81 937.09 599.40 883.37 670.44 C 867.18 691.69 849.97 712.19 831.22 731.21 C 824.36 739.35 816.10 746.12 808.58 753.61 C 739.89 818.25 656.31 867.08 566.15 894.88 C 558.20 897.47 550.13 899.77 542.04 901.89 C 534.09 904.11 526.08 906.18 518.00 907.88 C 513.35 909.05 508.67 910.22 503.91 910.83 C 502.40 911.75 500.61 911.61 498.93 911.77 C 487.12 914.86 474.84 916.19 462.80 918.28 C 458.43 918.66 454.14 919.72 449.75 919.79 C 446.60 920.92 443.23 920.55 439.97 920.76 C 437.18 922.23 433.92 921.35 430.93 921.80 C 427.07 923.11 422.93 922.47 418.95 922.74 C 414.88 924.45 410.29 923.05 406.05 924.01 C 399.11 925.33 391.85 923.82 385.03 925.28 C 384.24 925.29 382.66 925.32 381.88 925.33 C 380.29 923.93 378.25 924.68 376.92 926.00 L 342.18 926.00 C 340.41 925.71 338.69 925.27 337.02 924.68 C 335.72 925.16 334.39 925.38 333.02 925.36 C 332.54 925.19 331.57 924.85 331.09 924.69 C 324.52 924.60 317.90 924.89 311.40 923.79 C 307.95 923.46 304.46 923.74 301.03 923.20 C 298.42 922.26 295.63 922.80 292.94 922.52 C 285.32 921.38 277.64 920.89 270.04 919.67 C 268.35 919.49 266.55 919.77 265.07 918.77 C 252.98 917.72 241.01 915.23 229.12 912.87 C 227.42 912.68 225.73 912.42 224.11 911.90 C 212.65 909.60 201.20 907.09 189.95 903.89 C 186.26 903.00 182.51 902.20 178.96 900.86 C 174.23 899.91 169.63 898.36 165.06 896.85 C 110.15 880.40 57.57 856.33 8.81 826.19 C 6.05 824.44 3.34 822.58 0.28 821.37 C 3.78 821.29 7.29 821.37 10.72 822.15 C 13.78 822.75 17.10 821.81 19.98 823.27 C 27.66 823.44 35.39 823.21 43.01 824.32 C 52.37 824.28 61.73 824.37 71.08 824.27 C 71.43 824.13 72.14 823.85 72.49 823.71 C 78.67 823.50 84.86 823.30 91.04 823.27 C 94.75 821.42 99.16 823.30 102.93 821.74 C 105.65 821.34 108.40 821.43 111.12 821.19 C 113.68 820.26 116.41 820.34 119.08 820.27 C 121.21 819.01 123.77 819.50 126.11 819.18 C 141.44 816.37 156.88 813.75 171.96 809.68 C 235.40 793.71 295.19 763.92 346.70 723.64 C 339.77 724.03 332.90 723.12 326.02 722.60 C 312.58 721.05 299.10 718.87 286.15 714.83 C 246.37 703.79 209.81 681.50 181.39 651.58 C 157.09 626.36 138.67 595.50 127.97 562.16 C 137.00 563.16 145.93 565.08 155.03 565.43 C 162.68 565.41 170.23 566.94 177.89 566.20 C 184.12 564.76 190.72 566.14 196.98 564.61 C 207.83 563.77 218.43 561.15 229.11 559.19 C 229.72 558.99 230.93 558.61 231.53 558.41 C 231.59 557.98 231.69 557.11 231.75 556.68 C 229.84 556.72 227.93 556.55 226.13 555.92 C 224.74 555.58 223.34 555.34 221.97 554.92 C 210.64 552.25 199.64 548.34 188.89 543.91 C 122.33 516.28 70.18 456.10 53.09 386.00 C 52.66 384.66 52.38 383.27 52.11 381.91 C 50.82 376.95 49.73 371.92 49.15 366.83 C 48.27 364.29 48.35 361.59 48.22 358.95 C 46.96 356.88 47.60 354.41 47.24 352.15 C 45.64 343.40 46.62 334.46 46.25 325.62 C 53.91 330.56 62.40 334.06 70.73 337.73 C 87.86 344.60 105.73 349.74 124.01 352.43 C 133.15 353.82 142.37 354.91 151.64 354.58 C 108.58 326.10 75.55 282.73 59.54 233.63 C 57.92 228.44 56.01 223.27 55.19 217.88 C 53.48 213.76 53.13 209.22 52.09 204.90 C 50.88 197.93 49.41 190.96 49.24 183.88 C 47.54 178.12 49.00 172.01 47.86 166.17 C 47.43 161.47 47.46 156.69 48.24 152.03 C 48.22 139.97 49.69 127.92 52.11 116.11 C 56.62 90.33 66.42 65.71 79.14 42.92 C 94.79 61.78 111.32 79.90 128.62 97.27 C 136.48 104.09 143.49 111.83 151.52 118.47 C 226.42 185.90 317.07 235.62 413.96 263.15 C 422.97 265.47 431.95 267.96 441.00 270.12 C 451.93 272.62 462.91 274.90 473.89 277.14 C 481.90 278.45 489.99 279.56 497.92 281.20 C 500.26 281.32 502.65 281.33 504.88 282.19 C 507.23 282.29 509.60 282.37 511.91 282.91 C 515.15 283.72 518.61 283.02 521.79 284.21 C 524.83 284.52 527.99 284.10 530.92 285.20 C 534.90 285.60 539.04 284.96 542.90 286.25 C 548.89 286.35 554.90 286.43 560.82 287.47 C 559.96 279.93 557.97 272.54 557.24 264.96 C 554.96 250.77 555.18 236.35 555.39 222.01 C 555.56 219.03 555.29 215.97 556.22 213.10 C 557.42 196.14 560.69 179.18 566.14 163.06 C 567.90 155.86 570.97 149.05 573.67 142.17 C 581.05 124.97 590.40 108.61 601.66 93.65 C 635.30 48.55 685.82 16.02 741.11 5.14 C 747.30 3.62 753.66 2.47 760.04 2.25 C 760.45 2.08 761.25 1.74 761.65 1.57 C 767.42 1.33 773.18 0.71 778.91 0.00 Z" />
</g>
</svg>
